<svg xmlns="http://www.w3.org/2000/svg" width="16" height="16" viewBox="0 0 16 16">
    <g fill="none" fill-rule="evenodd">
        <polygon fill="#9AA7B0" fill-opacity="0.4" points="7 1 3 5 7 5"/>

        <path fill="#9AA7B0" fill-opacity="0.4" d="M13,15 L13,1 L8,1 L8,6 L3,6 L3,15 L13,15 Z"/>

        <g transform="scale(0.022) translate(230,290)">
            <path d="M195.008 311.356L82.2221 198.603C77.6282 193.823 75.0968 187.356 75.0968 180.139V19.2101C75.0968 9.83746 65.7215 0.464804 56.3461 0.464804H18.7508C9.37539 0.464804 0 9.83746 0 19.2101V206.663C0 216.598 3.6564 226.158 10.6879 233.188L141.943 364.405C149.256 371.716 158.819 375.371 168.476 375.371H187.226C197.633 375.371 205.977 366.936 205.977 356.626V337.974C205.977 328.32 202.321 318.76 195.008 311.45V311.356Z"
                  fill="#9F4CF2"/>
            <path d="M337.514 19.1164C337.514 9.65003 328.233 0.371094 318.764 0.371094H281.168C271.793 0.371094 262.418 9.74375 262.418 19.1164V179.951C262.418 187.168 259.605 193.635 254.917 198.509L217.134 236.281C209.822 243.592 206.165 253.152 206.165 262.806V281.551C206.165 291.955 214.603 300.296 224.916 300.296H243.667C253.23 300.296 262.886 296.641 270.199 289.33L326.451 233.094C333.483 226.065 337.421 216.505 337.421 206.57V19.1164H337.514Z"
                  fill="#9F4CF2"/>
        </g>
    </g>
</svg>
